<?xml version="1.0" encoding="utf-8"?>
<!-- Generator: Adobe Illustrator 15.1.0, SVG Export Plug-In . SVG Version: 6.00 Build 0)  -->
<!DOCTYPE svg PUBLIC "-//W3C//DTD SVG 1.1//EN" "http://www.w3.org/Graphics/SVG/1.1/DTD/svg11.dtd">
<svg version="1.1" xmlns="http://www.w3.org/2000/svg" xmlns:xlink="http://www.w3.org/1999/xlink" x="0px" y="0px"
	 width="302.119px" height="288.51px" viewBox="0 0 302.119 288.51" enable-background="new 0 0 302.119 288.51"
	 xml:space="preserve">
<g id="Layer_2">
</g>
<g id="Layer_1">
</g>
<g id="Layer_6">
</g>
<g id="Layer_4">
</g>
<g id="Layer_5">
</g>
<g id="Layer_3">
	<g>
		<rect x="31.516" y="102.452" fill="#B9E5FB" width="108.531" height="160.354"/>
		<rect x="19.699" y="109.59" opacity="0.58" fill="#C6CBE7" width="115.646" height="7.407"/>
		<rect x="19.699" y="122.245" opacity="0.58" fill="#C6CBE7" width="115.646" height="7.407"/>
		<rect x="19.699" y="134.899" opacity="0.58" fill="#C6CBE7" width="115.646" height="7.407"/>
		<rect x="19.699" y="147.554" opacity="0.58" fill="#C6CBE7" width="115.646" height="7.407"/>
		<rect x="19.699" y="160.208" opacity="0.58" fill="#C6CBE7" width="115.646" height="7.406"/>
		<rect x="19.699" y="172.863" opacity="0.58" fill="#C6CBE7" width="115.646" height="7.407"/>
		<rect x="19.699" y="185.518" opacity="0.58" fill="#C6CBE7" width="115.646" height="7.406"/>
		<rect x="19.699" y="198.171" opacity="0.58" fill="#C6CBE7" width="115.646" height="7.408"/>
		<rect x="19.699" y="210.827" opacity="0.58" fill="#C6CBE7" width="115.646" height="7.406"/>
		<rect x="19.699" y="223.481" opacity="0.58" fill="#C6CBE7" width="115.646" height="7.407"/>
		<rect x="19.699" y="236.136" opacity="0.58" fill="#C6CBE7" width="115.646" height="7.406"/>
		<rect x="19.699" y="248.791" opacity="0.58" fill="#C6CBE7" width="115.646" height="7.406"/>
		<text transform="matrix(1 0 0 1 56.0059 94.7104)" fill="#21409A" font-family="'MyriadPro-Semibold'" font-size="9.6">HumdrumFile</text>
		
			<text transform="matrix(4.489659e-11 -1 1 4.489659e-11 8.0352 211.2397)" fill="#7F3F98" font-family="'MyriadPro-Semibold'" font-size="9.6">HumdrumLine</text>
		<rect x="46.815" y="106.455" opacity="0.61" fill="#EDDBE3" width="28.938" height="170.026"/>
		<rect x="81.591" y="106.455" opacity="0.61" fill="#EDDBE3" width="28.825" height="170.026"/>
		<rect x="115.523" y="106.455" opacity="0.61" fill="#EDDBE3" width="14.947" height="170.026"/>
		<text transform="matrix(1 0 0 1 23.6797 115.0552)" fill="#7F3F98" font-family="'MyriadPro-Regular'" font-size="6">0</text>
		<text transform="matrix(1 0 0 1 58.4795 274.0552)" fill="#ED1C24" font-family="'MyriadPro-Regular'" font-size="6">0</text>
		<text transform="matrix(1 0 0 1 94.4795 274.0552)" fill="#ED1C24" font-family="'MyriadPro-Regular'" font-size="6">1</text>
		<text transform="matrix(1 0 0 1 121.4805 274.0552)" fill="#ED1C24" font-family="'MyriadPro-Regular'" font-size="6">2</text>
		<text transform="matrix(1 0 0 1 23.6797 127.6558)" fill="#7F3F98" font-family="'MyriadPro-Regular'" font-size="6">1</text>
		<text transform="matrix(1 0 0 1 23.6797 140.2554)" fill="#7F3F98" font-family="'MyriadPro-Regular'" font-size="6">2</text>
		<text transform="matrix(1 0 0 1 23.6797 153.4556)" fill="#7F3F98" font-family="'MyriadPro-Regular'" font-size="6">3</text>
		<text transform="matrix(1 0 0 1 23.6797 165.4556)" fill="#7F3F98" font-family="'MyriadPro-Regular'" font-size="6">4</text>
		<text transform="matrix(1 0 0 1 23.6797 178.6558)" fill="#7F3F98" font-family="'MyriadPro-Regular'" font-size="6">5</text>
		<text transform="matrix(1 0 0 1 23.6797 191.2554)" fill="#7F3F98" font-family="'MyriadPro-Regular'" font-size="6">6</text>
		<text transform="matrix(1 0 0 1 23.6797 203.855)" fill="#7F3F98" font-family="'MyriadPro-Regular'" font-size="6">7</text>
		<text transform="matrix(1 0 0 1 23.6797 216.4556)" fill="#7F3F98" font-family="'MyriadPro-Regular'" font-size="6">8</text>
		<text transform="matrix(1 0 0 1 23.6797 229.0552)" fill="#7F3F98" font-family="'MyriadPro-Regular'" font-size="6">9</text>
		<text transform="matrix(1 0 0 1 21.8799 241.6558)" fill="#7F3F98" font-family="'MyriadPro-Regular'" font-size="6">10</text>
		<text transform="matrix(1 0 0 1 21.8799 254.2554)" fill="#7F3F98" font-family="'MyriadPro-Regular'" font-size="6">11</text>
		<text transform="matrix(1 0 0 1 58.4053 286.7104)"><tspan x="0" y="0" fill="#ED1C24" font-family="'MyriadPro-Semibold'" font-size="7.2">HumdrumLine </tspan><tspan x="46.706" y="0" fill="#ED1C24" font-family="'MyriadPro-Regular'" font-size="7.2">fields</tspan></text>
		
			<text transform="matrix(4.489659e-11 -1 1 4.489659e-11 154.7061 211.1108)" fill="#ED1C24" font-family="'MyriadPro-Semibold'" font-size="9.6">HumdrumToken</text>
		<g>
			<g>
				<line fill="none" stroke="#ED1C24" stroke-miterlimit="10" x1="145.002" y1="157.733" x2="107.457" y2="131.434"/>
				<g>
					<polygon fill="#ED1C24" points="104.565,129.409 109.806,130.598 107.673,131.585 107.474,133.927 					"/>
				</g>
			</g>
		</g>
		<g>
			<g>
				<line fill="none" stroke="#ED1C24" stroke-miterlimit="10" x1="144.016" y1="176.951" x2="99.846" y2="176.951"/>
				<g>
					<polygon fill="#ED1C24" points="96.315,176.951 101.29,174.918 100.109,176.951 101.29,178.983 					"/>
				</g>
			</g>
		</g>
		<g>
			<g>
				<line fill="none" stroke="#ED1C24" stroke-miterlimit="10" x1="145.002" y1="193.492" x2="128.465" y2="220.364"/>
				<g>
					<polygon fill="#ED1C24" points="126.615,223.371 127.491,218.069 128.604,220.139 130.953,220.199 					"/>
				</g>
			</g>
		</g>
		<rect x="48.229" y="110.97" fill="none" width="94.375" height="150.5"/>
		<text transform="matrix(1 0 0 1 48.2285 115.5708)"><tspan x="0" y="0" font-family="'Courier'" font-size="7.2">**kern  **kern</tspan><tspan x="0" y="12.6" font-family="'Courier'" font-size="7.2">*M3/4   *M3/4</tspan><tspan x="0" y="25.2" font-family="'Courier'" font-size="7.2">8C      12d</tspan><tspan x="0" y="37.8" font-family="'Courier'" font-size="7.2">.       12e</tspan><tspan x="0" y="50.4" font-family="'Courier'" font-size="7.2">8B      .</tspan><tspan x="0" y="63" font-family="'Courier'" font-size="7.2">.       12f</tspan><tspan x="0" y="75.6" font-family="'Courier'" font-size="7.2">*       *^</tspan><tspan x="0" y="88.2" font-family="'Courier'" font-size="7.2">4A      2g      4e</tspan><tspan x="0" y="100.8" font-family="'Courier'" font-size="7.2">4G      .       4c</tspan><tspan x="0" y="113.4" font-family="'Courier'" font-size="7.2">*       *v      *v</tspan><tspan x="0" y="126" font-family="'Courier'" font-size="7.2">=       =</tspan><tspan x="0" y="138.6" font-family="'Courier'" font-size="7.2">*-      *-</tspan></text>
	</g>
	<g>
		<rect x="179.115" y="102.452" fill="#B9E5FB" width="108.531" height="160.354"/>
		<rect x="229.191" y="92.531" opacity="0.61" fill="#EDDBE3" width="28.824" height="183.95"/>
		<rect x="263.124" y="195.528" opacity="0.61" fill="#EDDBE3" width="14.947" height="36.862"/>
		<polygon opacity="0.61" fill="#EDDBE3" points="278.071,195.528 263.124,195.528 240.129,188.562 		"/>
		<rect x="229.523" y="194.328" opacity="0.61" fill="#EDDBE3" width="14.947" height="36.862"/>
		<g>
			<g>
				<line fill="none" stroke="#ED1C24" stroke-miterlimit="10" x1="278.838" y1="186.906" x2="275.241" y2="194.01"/>
				<g>
					<polygon fill="#ED1C24" points="273.646,197.16 274.08,191.803 275.36,193.774 277.707,193.639 					"/>
				</g>
			</g>
		</g>
		<g>
			<g>
				<line fill="none" stroke="#ED1C24" stroke-miterlimit="10" x1="261.695" y1="238.14" x2="247.082" y2="216.869"/>
				<g>
					<polygon fill="#ED1C24" points="245.083,213.959 249.575,216.909 247.231,217.087 246.225,219.21 					"/>
				</g>
			</g>
		</g>
		<rect x="194.416" y="92.531" opacity="0.61" fill="#EDDBE3" width="28.937" height="183.95"/>
		<rect x="195.829" y="110.97" fill="none" width="94.374" height="150.5"/>
		<text transform="matrix(1 0 0 1 195.8281 115.5708)"><tspan x="0" y="0" font-family="'Courier'" font-size="7.2">**kern  **kern</tspan><tspan x="0" y="12.6" font-family="'Courier'" font-size="7.2">*M3/4   *M3/4</tspan><tspan x="0" y="25.2" font-family="'Courier'" font-size="7.2">8C      12d</tspan><tspan x="0" y="37.8" font-family="'Courier'" font-size="7.2">.       12e</tspan><tspan x="0" y="50.4" font-family="'Courier'" font-size="7.2">8B      .</tspan><tspan x="0" y="63" font-family="'Courier'" font-size="7.2">.       12f</tspan><tspan x="0" y="75.6" font-family="'Courier'" font-size="7.2">*       *^</tspan><tspan x="0" y="88.2" font-family="'Courier'" font-size="7.2">4A      2g      4e</tspan><tspan x="0" y="100.8" font-family="'Courier'" font-size="7.2">4G      .       4c</tspan><tspan x="0" y="113.4" font-family="'Courier'" font-size="7.2">*       *v      *v</tspan><tspan x="0" y="126" font-family="'Courier'" font-size="7.2">=       =</tspan><tspan x="0" y="138.6" font-family="'Courier'" font-size="7.2">*-      *-</tspan></text>
		<polygon opacity="0.61" fill="#EDDBE3" points="278.071,232.39 263.124,232.39 238.258,238.942 		"/>
		<text transform="matrix(1 0 0 1 199.1621 98.8306)" fill="#EF4136" font-family="'MyriadPro-Regular'" font-size="7.2">spine 1</text>
		<text transform="matrix(1 0 0 1 232.7617 98.8306)" fill="#EF4136" font-family="'MyriadPro-Regular'" font-size="7.2">spine 2</text>
		<text transform="matrix(1 0 0 1 197.9619 271.6304)" fill="#EF4136" font-family="'MyriadPro-Regular'" font-size="7.2">track 1</text>
		<text transform="matrix(1 0 0 1 233.9619 271.6304)" fill="#EF4136" font-family="'MyriadPro-Regular'" font-size="7.2">track 2</text>
		<text transform="matrix(1 0 0 1 262.5625 245.231)" fill="#EF4136" font-family="'MyriadPro-Regular'" font-size="7.2">subtrack 2.1</text>
		<text transform="matrix(1 0 0 1 262.5625 178.0308)" fill="#EF4136" font-family="'MyriadPro-Regular'" font-size="7.2">subtrack 2.2</text>
		<text transform="matrix(1 0 0 1 260.5625 185.231)" fill="#EF4136" font-family="'MyriadPro-Regular'" font-size="7.2">subspine (2)b</text>
		<text transform="matrix(1 0 0 1 260.5625 252.4307)" fill="#EF4136" font-family="'MyriadPro-Regular'" font-size="7.2">subspine (2)a</text>
	</g>
	<g>
		<g transform="translate(0,135) scale(1,-1) scale(.01800) translate(2100,26250)">
			<path fill="none" stroke="#010101" stroke-width="0.5" stroke-linejoin="round" d="M1894.982-22532.633h8999.974
				 M1894.982-22270.129h8999.974 M1894.982-22007.623h8999.974 M1894.982-21745.145h8999.974 M1894.982-21482.639h8999.974"/>
			<path fill="#010101" stroke="#010101" stroke-width="0.5" stroke-linejoin="round" d="M1764.476-22532.633l-61.496,80.24
				l-18.745,27.777l-32.254,56.234l-28.51,65.998l-18.745,56.262l-14.241,65.24l-9.006,65.998l-4.503,83.984v47.256l9.006,93.75
				l14.241,84.012l70.503,332.98l18.744,117.025l13.51,122.232v60.764l-9.007,102.756l-14.241,65.973l-9.006,27.777l-23.98,47.256
				l-69.77,102.729l69.77,103.488l23.98,46.521l9.006,28.512l14.241,65.238l9.007,103.488v60.766l-13.51,122.232l-18.744,117.025
				l-70.503,332.98l-14.241,84.012l-9.006,93.75v47.254l4.503,83.984l9.006,66l14.241,65.238l18.745,56.262l28.51,66l32.254,56.262
				l18.745,27.75l61.496,79.48l-56.261-102.756l-32.986-70.475l-23.248-70.504l-18.744-93.75l-5.263-79.508v-32.986l9.766-84.012
				l18.718-98.252l23.274-89.246l23.248-93.75l37.516-168.758l9.712-65.998l9.006-93.75l5.263-65.24v-75.004l-14.269-126.766
				l-18.718-60.734l-28.51-66l-32.254-51l-89.247-117.756l89.247-116.998l32.254-51.758l28.51-65.238l18.718-60.738l14.269-126.762
				v-75.008l-5.263-65.998l-9.006-93.75l-9.712-65.24l-37.516-168.754l-23.248-93.75l-23.274-89.248l-18.718-98.252l-9.766-84.746
				v-32.254l5.263-80.24l18.744-93.75l23.248-69.77l32.986-70.475L1764.476-22532.633z"/>
			<path fill="none" stroke="#010101" stroke-width="0.5" stroke-linejoin="round" d="M1894.982-22532.633v3412.488
				 M1899.458-22532.633v3412.488"/>
			<path fill="#010101" stroke="#010101" stroke-width="0.5" stroke-linejoin="round" d="M2119.972-21758.625l9.006-24.008
				l14.241-18.746l18.771-18.744l23.221-9.006l28.511-4.504h9.006l33.013,4.504l23.221,9.006l18.771,14.242l14.242,18.744
				l9.006,18.771l5.235,28.482v13.51l-5.235,23.98l-9.006,18.771l-18.745,18.746l-14.269,8.977l-18.717,9.766l-23.275,4.504h-23.247
				l-28.511-9.766l-14.214-9.006l-13.51-23.221l-14.269,13.482l4.503,33.014l9.766,28.482l9.006,18.771l23.221,37.488
				l-27.724-28.482l-14.269-18.771l-9.006-18.744l-14.241-37.518l-9.739-37.488v-27.75L2119.972-21758.625z"/>
			<path fill="none" stroke="#010101" stroke-width="0.5" stroke-linejoin="round" d="M2189.714-21552.383l33.014,23.25l28.51,14.24
				l27.724,9.006l28.511,4.504"/>
			<path fill="#010101" stroke="#010101" stroke-width="0.5" stroke-linejoin="round" d="M2241.472-22260.391l56.261,33.014
				l66,41.992l69.742,56.234l61.497,60.764l27.75,37.488l32.986,47.256l18.771,37.518l18.745,41.992l9.006,33.012l5.235,32.227
				l4.503,42.752v32.254l-4.503,47.256l-9.738,33.012l-14.241,37.488l-13.51,27.752l-23.979,33.014l-23.275,23.219l-27.75,18.773
				l-18.745,14.242l-32.986,14.24l-33.013,9.006l-42.02,4.504h-60.736l56.261-9.008l23.247-9.738l27.751-18.744l28.51-32.252
				l14.242-24.008l13.481-37.49l9.766-46.494l4.503-56.262v-51.758l-4.503-74.979l-9.766-51.758l-9.006-41.992l-14.214-46.521
				l-23.275-51.73l-18.744-33.014l-28.511-37.518l-32.227-37.488l-18.771-18.744l-32.986-27.752l-37.489-28.482l-28.51-18.771
				l-56.233-32.986l-88.515-46.494v-4.504l60.736,27.723L2241.472-22260.391z"/>
			<path fill="#010101" stroke="#010101" stroke-width="0.5" stroke-linejoin="round" d="M2686.975-21622.883l4.503-9.74
				l9.738-13.51l13.509-5.262h14.27l14.214,5.262l9.006,13.51l5.263,9.74v18.742l-5.263,9.008l-9.006,14.268l-14.214,4.477h-14.27
				l-13.509-4.477l-9.738-14.268l-4.503-9.008V-21622.883z"/>
			<path fill="#010101" stroke="#010101" stroke-width="0.5" stroke-linejoin="round" d="M2686.975-21880.887l4.503-9.006
				l9.738-14.24l13.509-4.504h14.27l14.214,4.504l9.006,14.24l5.263,9.006v18.771l-5.263,9.74l-9.006,13.48l-14.214,5.262h-14.27
				l-13.509-5.262l-9.738-13.48l-4.503-9.74V-21880.887z"/>
			<path fill="#010101" stroke="#010101" stroke-width="0.5" stroke-linejoin="round" d="M3100.982-21508.871l-39.008-6.021
				l-33.014-13.51l-12.749-6.727l-20.237-12.75l-19.504-19.504l-6.754-13.482l-5.995-19.531v-19.477l5.995-26.26l20.264-20.234
				l19.504-6.023h19.477l19.531,6.023l13.482,13.48l6.754,19.504v19.504l-6.754,20.266l-13.482,12.748l-12.749,6.729l-26.259,6.754
				v12.75l19.477,13.48l33.014,12.75l33.013,6.781h12.75l32.986-6.781l12.749-6.727l13.51-12.75l12.749-26.258l6.728-39.742v-26.258
				l-6.728-26.23l-6.022-12.75l-13.481-13.51l-19.504-12.75l-19.478-6.754l-85.503-6.756v-19.504l78.722-6.754l19.531-5.996
				l13.481-6.754l12.75-13.48l6.755-5.996l12.749-26.258l6.728-32.988v-45.762l-6.728-39.74l-6.022-12.75l-20.236-20.264
				l-26.259-12.75l-32.227-6.754h-13.509l-32.986,6.754l-32.28,12.75l-13.482,6.754l-12.749,13.51v12.75l5.994,6.729h6.755
				l19.504-6.729h20.237l12.749,6.729l13.509,12.748l5.995,20.264v19.504l-5.995,19.477l-13.509,13.51l-19.477,6.021h-26.259
				l-19.504-6.021l-6.755-6.729l-13.509-19.531l-5.995-26.23v-13.508l5.995-33.016l13.509-19.477l6.755-6.754l19.504-12.75
				l32.986-13.48l39.008-6.023h39.768l52.463,6.023l39.009,13.48l26.259,12.75l26.259,20.264l19.477,26.232l6.782,12.75
				l6.727,26.258v33.012l-6.727,26.234l-6.782,12.748l-12.749,20.264l-26.232,19.477l-33.013,12.75l-19.478,6.754v13.51
				l32.986,12.75l12.75,6.754l19.504,12.75l13.482,13.51l12.749,19.477l6.782,19.504v26.258l-6.782,26.232l-12.749,20.264
				l-26.232,26.23l-26.258,12.75l-39.741,13.51l-45.735,6.021H3100.982z"/>
			<path fill="#010101" stroke="#010101" stroke-width="0.5" stroke-linejoin="round" d="M3074.724-22039.877l-5.995-52.49
				l-6.754-33.012l-13.482-52.492l-12.749-39.766l-26.259-65.242l-33.014-59.27l-12.749-19.479l-6.755-13.51v-5.994l6.755-13.51
				h189.751v-105.008h-98.253v-19.477h308.269v19.477H3258.48v105.008h105.008v19.504H3258.48v177.734l-12.75,6.023l-92.258-84.744
				v-99.014h-157.498v6.756l59.245,65.998l71.994,84.746l72.754,92.258l45.763,59.244v5.994l-13.509,13.51h-110.976l-26.259,6.754
				H3074.724z"/>
			<g transform="translate(2550,-23475)">
				<g id="P00_15_">
					<path fill="#010101" stroke="#010101" stroke-width="0.5" stroke-linejoin="round" d="M3895.986-22264.893h32.985l28.511,4.502
						l41.992,14.27l37.517,18.744l32.985,23.248l13.51,14.242l23.979,27.75l13.51,27.75l5.262,27.75v18.773l-5.262,18.717
						l-4.504,9.766l-14.241,18.744l-18.744,14.242l-9.007,4.504l-14.269,4.502l-23.22,4.502h-33.014l-27.751-4.502l-28.482-9.006
						l-14.269-5.234l-37.489-18.746l-32.254-23.273l-14.241-14.215l-23.275-27.777l-14.241-27.725l-4.503-27.777v-18.744
						l4.503-18.746l4.503-9.766l14.241-18.717l18.772-14.268l9.006-4.504l14.214-4.504L3895.986-22264.893z"/>
				</g>
			</g>
			<path fill="none" stroke="#010101" stroke-width="0.5" stroke-linejoin="round" d="M3807.472-22177.871v-748.508"/>
			<path fill="#010101" d="M5385.462-22466.635v-131.266l-1577.99-328.479v131.24L5385.462-22466.635v-131.266V-22466.635z"/>
			<g transform="translate(4655,-22425)">
				<g id="P00_14_">
					<path fill="#010101" stroke="#010101" stroke-width="0.5" stroke-linejoin="round" d="M5474.708-21477.375h32.986l28.537,4.475
						l41.992,14.268l37.488,18.746l33.041,23.246l13.455,14.27l24.035,27.723l13.508,27.777l5.209,27.725v18.771l-5.209,18.746
						l-4.557,9.738l-14.215,18.77l-18.771,14.242l-9.006,4.477l-14.215,4.504l-23.275,4.502h-32.984l-27.725-4.502l-28.537-8.98
						l-14.215-5.234l-37.543-18.773l-32.227-23.246l-14.27-14.242l-23.219-27.777l-14.27-27.723l-4.504-27.75v-18.746l4.504-18.771
						l4.504-9.738l14.268-18.744l18.717-14.27l9.008-4.504l14.268-4.502L5474.708-21477.375z"/>
				</g>
			</g>
			<path fill="none" stroke="#010101" stroke-width="0.5" stroke-linejoin="round" d="M5386.22-21390.381v-1207.52"/>
			<g transform="translate(6760,-22600)">
				<g id="P00_13_">
					<path fill="#010101" stroke="#010101" stroke-width="0.5" stroke-linejoin="round" d="M7053.483-21608.643h32.986l28.537,4.502
						l41.992,14.27l37.49,18.746l32.986,23.246l13.508,14.242l23.98,27.75l13.51,27.75l5.262,27.75v18.773l-5.262,18.717
						l-4.504,9.766l-14.213,18.744l-18.773,14.242l-9.006,4.504l-14.268,4.502l-23.221,4.502h-33.041l-27.723-4.502l-28.484-9.006
						l-14.268-5.234l-37.49-18.746l-32.227-23.273l-14.268-14.215l-23.275-27.777l-14.215-27.725l-4.502-27.777v-18.744
						l4.502-18.746l4.449-9.766l14.27-18.717l18.771-14.268l9.006-4.504l14.215-4.504L7053.483-21608.643z"/>
				</g>
			</g>
			<path fill="none" stroke="#010101" stroke-width="0.5" stroke-linejoin="round" d="M6964.997-21521.621v-879.773"/>
			<g transform="translate(9347,-22775)">
				<g id="P00_12_">
					<path fill="#010101" stroke="#010101" stroke-width="0.5" stroke-linejoin="round" d="M8993.696-21739.883h33.041l28.482,4.504
						l41.992,14.242l37.545,18.744l32.984,23.275l13.455,14.242l24.035,27.75l13.51,27.723l5.207,27.777v18.746l-5.207,18.742
						l-4.504,9.766l-14.27,18.719l-18.771,14.27l-8.951,4.502l-14.27,4.502l-23.219,4.504h-33.041l-27.725-4.504l-28.537-9.004
						l-14.213-5.264l-37.545-18.744l-32.227-23.248l-14.213-14.24l-23.275-27.752l-14.27-27.75l-4.502-27.752v-18.742l4.502-18.746
						l4.504-9.766l14.268-18.744l18.773-14.242l8.951-4.502l14.268-4.504L8993.696-21739.883z"/>
				</g>
			</g>
			<path fill="none" stroke="#010101" stroke-width="0.5" stroke-linejoin="round" d="M8905.21-21652.887v-879.746"/>
			<path fill="none" stroke="#010101" stroke-width="0.5" stroke-linejoin="round" d="M10636.222-22532.633v3412.488
				 M10640.724-22532.633v3412.488 M10782.489-22532.633l112.467,3412.488"/>
			<path fill="#010101" stroke="#010101" stroke-width="0.5" stroke-linejoin="round" d="M10894.956-19120.145v-3412.488h-112.467
				v3412.488H10894.956z"/>
			<path fill="none" stroke="#010101" stroke-width="0.5" stroke-linejoin="round" d="M1894.982-20170.139h8999.974
				 M1894.982-19907.633h8999.974 M1894.982-19645.129h8999.974 M1894.982-19382.623h8999.974 M1894.982-19120.145h8999.974"/>
			<path fill="#010101" stroke="#010101" stroke-width="0.5" stroke-linejoin="round" d="M2424.469-19363.879l164.253-937.5
				l9.006-88.514l-4.503-47.256l-9.738-27.723l-9.007-18.771l-18.771-28.482l-28.483-27.75l-23.247-14.242l-33.014-9.766
				l-27.724-4.504h-23.274l-47.255,4.504l-23.221,5.262l-18.771,9.006l4.503,28.482l18.772-5.262h9.738l18.744,5.262l18.745,9.008
				l13.509,9.738l14.241,13.508l14.269,24.008l4.504,13.482l4.503,24.006v9.008l-4.503,23.246l-14.27,28.512l-9.006,8.979
				l-18.744,14.24l-9.738,4.504l-27.778,9.766h-23.221l-24.007-4.504l-23.248-9.766l-14.269-8.977l-13.481-14.242l-14.242-23.275
				l-4.503-14.24l-5.263-23.25v-18.742l5.263-28.512l9.007-23.246l14.214-23.25l23.274-24.006l18.745-13.482l33.013-14.27
				l23.221-4.502l47.255-5.236h13.509l37.489,5.236l24.008,4.502l23.247,9.008l23.275,14.268l32.985,32.986l18.745,27.75
				l14.241,42.754l4.503,18.742l4.503,41.992l-9.006,84.012l-164.226,937.5H2424.469z"/>
			<path fill="none" stroke="#010101" stroke-width="0.5" stroke-linejoin="round" d="M2391.482-20151.395l60.765-4.504h37.489
				l51.758,4.504l28.482,5.262l27.751,9.008l37.517,18.744"/>
			<path fill="#010101" stroke="#010101" stroke-width="0.5" stroke-linejoin="round" d="M2635.244-20118.381l32.985,33.014
				l9.007,14.242l14.241,23.246l9.738,23.248l4.503,14.24l4.503,18.773l4.503,32.984v23.25l-4.503,27.75l-4.503,18.744
				l-9.738,24.006l-18.744,27.752l-13.51,14.24l-18.744,14.27l-24.008,13.482l-23.247,9.738l-18.745,4.502l-41.992,4.504h-4.503
				l-42.751-4.504l-37.489-8.979l-18.772-9.738l-27.75-18.771l-18.745-23.246l-9.766-18.746l-9.006-23.246l-4.476-37.518
				l4.476-32.986l9.006-23.246l14.269-24.008l18.745-18.746l42.02-27.75l-4.503-4.504l-46.522,23.25l-18.745,14.24l-23.979,23.275
				l-23.275,32.984l-14.241,37.49l-4.503,32.254v24.006l4.503,27.752l5.235,18.744l13.509,32.986l14.27,23.275l14.214,18.744
				l23.274,23.248l28.483,24.006l23.274,13.482l18.718,9.766l42.02,9.006h18.744l47.255-4.502l32.254-9.008l33.014-14.268
				l32.985-18.717l32.986-33.014l23.274-33.014l18.718-37.488l9.006-32.254l5.263-28.512v-27.723l-5.263-37.516l-4.503-24.008
				l-8.979-32.227l-14.242-28.51l-14.269-23.248l-18.744-23.246l-23.248-24.008L2635.244-20118.381z"/>
			<path fill="#010101" stroke="#010101" stroke-width="0.5" stroke-linejoin="round" d="M2391.482-20151.395l-27.75,5.262
				l-37.517,9.008l-28.483,9.738l-37.488,18.744l-18.772,13.51l-27.75,24.008l-24.008,23.246l-23.221,32.986l-18.771,37.518
				l-14.241,37.488l-9.006,42.02l-4.503,41.992v47.254l9.006,69.742l14.241,56.234l18.771,47.254l23.221,46.496l33.014,42.752
				l42.02,46.494l79.48,75.033l51.758,47.229l116.998,112.494l51.73,60.764l28.511,46.496l18.744,42.75l9.006,27.752l9.766,37.516
				l4.503,41.992v28.484l-4.503,33.014l-5.263,13.48l28.483,18.771l9.006-37.516l5.263-27.75l4.503-41.994v-9.766l-4.503-65.238
				l-5.263-28.512l-9.006-41.992l-14.214-51.758l-18.772-46.494l-23.247-47.256l-33.014-56.232l-51.73-60.736l-173.259-164.281
				l-51.758-56.232l-27.724-37.518l-28.51-46.494l-9.006-18.744l-14.242-33.014l-9.006-32.986l-5.263-41.992v-32.986l5.263-42.018
				l9.006-37.518l14.242-37.49l23.247-41.992l18.772-24.006l23.22-23.248l24.008-18.744l27.75-14.242l23.275-9.006
				L2391.482-20151.395z"/>
			<path fill="#010101" stroke="#010101" stroke-width="0.5" stroke-linejoin="round" d="M2424.469-19363.879l-18.744,131.24
				l-4.503,89.273v70.475l9.006,89.248l9.738,41.992l13.509,37.518l18.772,33.012l23.979,32.227l23.248,28.512l37.516,37.516
				l18.718,8.979h4.503l9.766-4.477l23.248-27.777l27.75-51.758l28.483-65.973l-28.483-18.771l-9.006,24.008l-14.241,18.744
				l-14.241,4.504h-4.504l-18.771-4.504l-4.503-5.236l-14.214-9.004l-18.772-18.746l-32.985-47.254l-27.778-56.262l-14.214-37.488
				l-14.27-65.268l-4.503-51.73v-33.014l4.503-69.742l9.766-80.242H2424.469z"/>
			<path fill="#010101" stroke="#010101" stroke-width="0.5" stroke-linejoin="round" d="M3100.982-19146.375l-39.008-5.996
				l-33.014-13.508l-12.749-6.756l-20.237-12.748l-19.504-19.506l-6.754-13.51l-5.995-19.477v-19.504l5.995-26.258l20.264-20.264
				l19.504-5.969h19.477l19.531,5.969l13.482,13.51l6.754,19.504v19.504l-6.754,20.236l-13.482,12.748l-12.749,6.783l-26.259,6.727
				v12.75l19.477,13.51l33.014,12.75l33.013,6.754h12.75l32.986-6.754l12.749-6.756l13.51-12.748l12.749-26.232l6.728-39.768v-26.26
				l-6.728-26.258l-6.022-12.75l-13.481-13.482l-19.504-12.75l-19.478-6.754l-85.503-6.727v-19.531l78.722-6.729l19.531-6.021
				l13.481-6.727l12.75-13.51l6.755-5.994l12.749-26.26l6.728-33.014v-45.734l-6.728-39.77l-6.022-12.75l-20.236-20.234
				l-26.259-12.75l-32.227-6.729h-13.509l-32.986,6.729l-32.28,12.75l-13.482,6.754l-12.749,13.48v12.75l5.994,6.781h6.755
				l19.504-6.781h20.237l12.749,6.781l13.509,12.75l5.995,20.238v19.504l-5.995,19.504l-13.509,13.508l-19.477,5.969h-26.259
				l-19.504-5.969l-6.755-6.781l-13.509-19.477l-5.995-26.258v-13.51l5.995-32.986l13.509-19.504l6.755-6.754l19.504-12.75
				l32.986-13.51l39.008-5.967h39.768l52.463,5.967l39.009,13.51l26.259,12.75l26.259,20.234l19.477,26.26l6.782,12.75l6.727,26.258
				v32.986l-6.727,26.258l-6.782,12.75l-12.749,20.266l-26.232,19.504l-33.013,12.748l-19.478,6.729v13.508l32.986,12.75
				l12.75,6.754l19.504,12.75l13.482,13.482l12.749,19.531l6.782,19.477v26.26l-6.782,26.258l-12.749,20.236l-26.232,26.26
				l-26.258,12.75l-39.741,13.508l-45.735,5.996H3100.982z"/>
			<path fill="#010101" stroke="#010101" stroke-width="0.5" stroke-linejoin="round" d="M3074.724-19677.383l-5.995-52.516
				l-6.754-32.986l-13.482-52.49l-12.749-39.742l-26.259-65.266l-33.014-59.246l-12.749-19.504l-6.755-13.48v-6.023l6.755-13.508
				h189.751v-104.98h-98.253v-19.504h308.269v19.504H3258.48v104.98h105.008v19.531H3258.48v177.734l-12.75,5.994l-92.258-84.744
				v-98.984h-157.498v6.727l59.245,66l71.994,84.77l72.754,92.232l45.763,59.244v6.023l-13.509,13.48h-110.976l-26.259,6.754
				H3074.724z"/>
			
				<text transform="matrix(55.5556 0 0 -55.5556 5047.2451 -19250.6777)" fill="#010101" font-family="'TimesNewRomanPS-ItalicMT'" font-size="9.1125">3</text>
			<path fill="#010101" d="M6230.729-19382.623v131.24l-2104.492-131.24v-131.266L6230.729-19382.623v131.24V-19382.623z"/>
			<g transform="translate(2550,-21025)">
				<g id="P00_11_">
					<path fill="#010101" stroke="#010101" stroke-width="0.5" stroke-linejoin="round" d="M3895.986-20427.383h32.985l28.511,4.504
						l41.992,14.242l37.517,18.744l32.985,23.275l13.51,14.242l23.979,27.75l13.51,27.723l5.262,27.777v18.746l-5.262,18.744
						l-4.504,9.766l-14.241,18.717l-18.744,14.27l-9.007,4.502l-14.269,4.504l-23.22,4.502h-33.014l-27.751-4.502l-28.482-9.006
						l-14.269-5.264l-37.489-18.744l-32.254-23.248l-14.241-14.24l-23.275-27.752l-14.241-27.75l-4.503-27.752v-18.742l4.503-18.746
						l4.503-9.766l14.241-18.744l18.772-14.242l9.006-4.502l14.214-4.504L3895.986-20427.383z"/>
				</g>
			</g>
			<path fill="none" stroke="#010101" stroke-width="0.5" stroke-linejoin="round" d="M4126.237-20261.637v879.014"/>
			<g transform="translate(3953,-20850)">
				<g id="P00_10_">
					<path fill="#010101" stroke="#010101" stroke-width="0.5" stroke-linejoin="round" d="M4948.231-20296.143h32.986l28.512,4.502
						l41.992,14.27l37.516,18.746l32.986,23.246l13.508,14.242l23.98,27.75l13.51,27.75l5.262,27.752v18.771l-5.262,18.717
						l-4.504,9.766l-14.24,18.744l-18.746,14.242l-9.006,4.504l-14.268,4.502l-23.221,4.504h-33.014l-27.75-4.504l-28.484-9.006
						l-14.268-5.234l-37.49-18.746l-32.253-23.273l-14.241-14.215l-23.275-27.777l-14.241-27.725l-4.476-27.777v-18.744
						l4.476-18.746l4.503-9.766l14.241-18.717l18.772-14.268l9.006-4.504l14.214-4.504L4948.231-20296.143z"/>
				</g>
			</g>
			<path fill="none" stroke="#010101" stroke-width="0.5" stroke-linejoin="round" d="M5178.483-20130.398v813.748"/>
			<g transform="translate(5356,-20675)">
				<g id="P00_9_">
					<path fill="#010101" stroke="#010101" stroke-width="0.5" stroke-linejoin="round" d="M6000.478-20164.875h32.986l28.484,4.475
						l42.045,14.268l37.49,18.746l32.986,23.246l13.508,14.27l23.98,27.723l13.51,27.779l5.262,27.723v18.771l-5.262,18.746
						l-4.504,9.738l-14.268,18.771l-18.719,14.24l-9.006,4.477l-14.268,4.504l-23.221,4.502h-32.986l-27.777-4.502l-28.484-8.98
						l-14.268-5.234l-37.49-18.771l-32.279-23.248l-14.215-14.242l-23.275-27.777l-14.215-27.723l-4.502-27.75v-18.746l4.502-18.771
						l4.504-9.738l14.215-18.744l18.771-14.27l9.006-4.504l14.215-4.502L6000.478-20164.875z"/>
				</g>
			</g>
			<path fill="none" stroke="#010101" stroke-width="0.5" stroke-linejoin="round" d="M6230.729-19999.133v747.75"/>
			<g transform="translate(6760,-20850)">
				<g id="P00_7_">
					<path fill="#010101" stroke="#010101" stroke-width="0.5" stroke-linejoin="round" d="M7053.483-20296.143h32.986l28.537,4.502
						l41.992,14.27l37.49,18.746l32.986,23.246l13.508,14.242l23.98,27.75l13.51,27.75l5.262,27.752v18.771l-5.262,18.717
						l-4.504,9.766l-14.213,18.744l-18.773,14.242l-9.006,4.504l-14.268,4.502l-23.221,4.504h-33.041l-27.723-4.504l-28.484-9.006
						l-14.268-5.234l-37.49-18.746l-32.227-23.273l-14.268-14.215l-23.275-27.777l-14.215-27.725l-4.502-27.777v-18.744
						l4.502-18.746l4.449-9.766l14.27-18.717l18.771-14.268l9.006-4.504l14.215-4.504L7053.483-20296.143z"/>
				</g>
			</g>
			<path fill="none" stroke="#010101" stroke-width="0.5" stroke-linejoin="round" d="M6964.997-20209.121v-682.508"/>
			<path fill="none" stroke="#010101" stroke-width="0.5" stroke-linecap="round" stroke-linejoin="round" d="M6988.218-20005.887
				l18.771-14.242l9.006-4.502l14.215-4.502l28.537-4.504h27.723l28.537,4.504l27.725,9.004l14.268,5.236l37.49,18.771
				l32.986,23.221l13.508,14.268l5.264,4.504l18.717,23.248l13.51,28.51l5.262,27.723v18.773l-5.262,18.744l-4.504,9.738
				l-14.213,18.771l-18.773,13.482l-9.006,5.262l-14.268,4.477l-27.725,4.502h-28.537l-27.723-4.502l-28.484-9.738l-14.268-4.477
				l-37.49-18.771l-32.227-23.246l-18.771-18.746l-18.771-23.246l-14.215-28.512l-4.502-27.75v-18.746l4.502-18.742l4.449-9.74
				L6988.218-20005.887 M6997.224-20005.887l14.268-9.006l18.719-5.236h9.766l23.273,9.738l177.734,108.02l18.773,13.482
				l9.711,9.738l4.502,14.268v13.51l-4.502,14.242l-4.504,9.738l-14.215,18.771l-14.268,9.006l-18.771,4.477h-8.953l-24.033-8.979
				l-177.734-108.02l-18.771-14.242l-9.713-9.004l-4.557-14.242v-14.27l4.557-13.48l5.209-9.74L6997.224-20005.887z"/>
			<path fill="none" stroke="#010101" stroke-width="0.5" stroke-linejoin="round" d="M7283.735-19867.865v878.986"/>
			<g transform="translate(9347,-21200)">
				<g id="P00_8_">
					<path fill="#010101" stroke="#010101" stroke-width="0.5" stroke-linejoin="round" d="M8993.696-20558.621h33.041l28.482,4.504
						l41.992,14.242l37.545,18.742l32.984,23.25l13.455,14.24l24.035,27.777l13.51,27.725l5.207,27.777v18.717l-5.207,18.771
						l-4.504,9.738l-14.27,18.746l-18.771,14.268l-8.951,4.504l-14.27,4.502l-23.219,4.504h-33.041l-27.725-4.504l-28.537-9.006
						l-14.213-5.262l-37.545-18.744l-32.227-23.248l-14.213-14.27l-23.275-27.723l-14.27-27.779l-4.502-27.723v-18.771l4.502-18.744
						l4.504-9.738l14.268-18.773l18.773-14.24l8.951-4.477l14.268-4.502L8993.696-20558.621z"/>
				</g>
			</g>
			<path fill="none" stroke="#010101" stroke-width="0.5" stroke-linejoin="round" d="M8811.46-20432.645h506.238"/>
			<path fill="none" stroke="#010101" stroke-width="0.5" stroke-linejoin="round" d="M8905.21-20471.625v-682.508"/>
		</g>
		<polygon fill="none" stroke="#010101" stroke-width="0.5" stroke-linecap="round" stroke-linejoin="round" points="
			167.252,18.796 163.701,20.616 164.814,19.465 166.449,18.908 		"/>
		<polygon fill="none" stroke="#010101" stroke-width="0.5" stroke-linecap="round" stroke-linejoin="round" points="
			164.902,22.918 168.453,21.099 167.34,22.25 165.705,22.807 		"/>
	</g>
</g>
</svg>
